<svg width="73" height="18" viewBox="0 0 73 18" fill="none" xmlns="http://www.w3.org/2000/svg">
<path d="M0.367676 0.608398H8.02686V4.08887H4.89014V7.38672H7.68311V10.6953H4.89014V18H0.367676V0.608398ZM13.6558 0.608398V18H9.1333V0.608398H13.6558ZM26.2134 0.608398L23.9146 18H17.0503L14.4399 0.608398H19.2095C19.7609 5.39941 20.1548 9.44922 20.3911 12.7578C20.6274 9.41341 20.8745 6.44141 21.1323 3.8418L21.4438 0.608398H26.2134ZM26.9868 0.608398H34.5278V4.08887H31.5093V7.38672H34.3345V10.6953H31.5093V14.5195H34.8286V18H26.9868V0.608398ZM46.2368 0.608398V18H42.2729L39.9204 10.0938V18H36.1392V0.608398H39.9204L42.4556 8.43945V0.608398H46.2368ZM52.5854 0.608398V18H48.063V0.608398H52.5854ZM63.5103 0.608398V4.08887H60.8247V18H56.3022V4.08887H53.6274V0.608398H63.5103ZM64.5415 0.608398H72.0825V4.08887H69.064V7.38672H71.8892V10.6953H69.064V14.5195H72.3833V18H64.5415V0.608398Z" fill="white"/>
</svg>
