<svg width="80" height="40" viewBox="0 0 80 40" fill="none" xmlns="http://www.w3.org/2000/svg">
<path d="M3.90234 11.6084H11.5615V15.0889H8.4248V18.3867H11.2178V21.6953H8.4248V29H3.90234V11.6084ZM17.1904 11.6084V29H12.668V11.6084H17.1904ZM29.748 11.6084L27.4492 29H20.585L17.9746 11.6084H22.7441C23.2956 16.3994 23.6895 20.4492 23.9258 23.7578C24.1621 20.4134 24.4092 17.4414 24.667 14.8418L24.9785 11.6084H29.748ZM30.5215 11.6084H38.0625V15.0889H35.0439V18.3867H37.8691V21.6953H35.0439V25.5195H38.3633V29H30.5215V11.6084ZM49.7715 11.6084V29H45.8076L43.4551 21.0938V29H39.6738V11.6084H43.4551L45.9902 19.4395V11.6084H49.7715ZM56.1201 11.6084V29H51.5977V11.6084H56.1201ZM67.0449 11.6084V15.0889H64.3594V29H59.8369V15.0889H57.1621V11.6084H67.0449ZM68.0762 11.6084H75.6172V15.0889H72.5986V18.3867H75.4238V21.6953H72.5986V25.5195H75.918V29H68.0762V11.6084Z" fill="white"/>
</svg>
